<?xml version="1.0" encoding="UTF-8"?> <svg xmlns="http://www.w3.org/2000/svg" width="54.078" height="54.078" viewBox="0 0 54.078 54.078"><g id="Group_59" data-name="Group 59" transform="translate(-217.911 -1488.939)"><path id="Path_248" data-name="Path 248" d="M244.95,1543.017a27.039,27.039,0,1,1,27.039-27.039A27.069,27.069,0,0,1,244.95,1543.017Zm0-52.366a25.327,25.327,0,1,0,25.327,25.327A25.356,25.356,0,0,0,244.95,1490.651Z" fill="#0b6f97"></path><path id="Path_249" data-name="Path 249" d="M235.5,1537.543a3.115,3.115,0,0,1-3.166-2.785,22.847,22.847,0,0,1,.014-5.765c.172-2.043.367-4.358-.3-5.029-.551-.551-5.335-5.527-3.724-10.557.757-2.363-3.888-6.788-6.994-9.023a.856.856,0,1,1,1-1.39c.925.665,9,6.627,7.624,10.935-1.057,3.3,1.58,7.1,3.305,8.825,1.232,1.232,1.032,3.619.8,6.383a21.64,21.64,0,0,0-.035,5.315,1.435,1.435,0,0,0,1.7,1.369c1.326-.119,2.574-1.182,2.574-1.919,0-2.265,1.4-3.551,2.532-4.584.217-.2.43-.393.627-.59.141-.141.147-.281.038-.934a4.519,4.519,0,0,1,1.451-4.513c2.852-2.852,5.183-7.408,3.8-8.79-.529-.53-.793-.527-2.172.718a4.77,4.77,0,0,1-3.029,1.625c-1.824,0-2.264-1.5-2.617-2.7a6.165,6.165,0,0,0-1.43-2.823,10.933,10.933,0,0,0-3.688-2.122,11.107,11.107,0,0,1-3.765-2.173,1.67,1.67,0,0,1-.56-1.693c.349-1.229,2.107-1.736,4.553-2.317a11.5,11.5,0,0,0,1.529-.422,4.395,4.395,0,0,1,1.452-.42,3.912,3.912,0,0,0,3.465-2.35c.989-2.224-1.822-7.136-2.885-8.681a.856.856,0,0,1,1.41-.97c.476.69,4.6,6.847,3.04,10.347a5.6,5.6,0,0,1-4.732,3.339,3.906,3.906,0,0,0-.894.217,8.432,8.432,0,0,1-1.989.6,12.172,12.172,0,0,0-3.237,1.072c.016.018.035.039.059.062a9.7,9.7,0,0,0,3.209,1.8,12.251,12.251,0,0,1,4.243,2.493,7.672,7.672,0,0,1,1.862,3.552c.4,1.343.528,1.469.975,1.469.571,0,1.237-.6,1.881-1.183,1.02-.921,2.727-2.463,4.531-.659,2.8,2.8-1.352,8.762-3.8,11.211a2.87,2.87,0,0,0-.973,3.022,2.49,2.49,0,0,1-.517,2.426c-.214.214-.445.426-.68.642-1.017.93-1.978,1.809-1.978,3.321,0,1.861-2.181,3.448-4.131,3.624C235.745,1537.537,235.621,1537.543,235.5,1537.543Zm-4.374-31.891Z" fill="#0b6f97"></path><path id="Path_250" data-name="Path 250" d="M263.637,1535.168a.845.845,0,0,1-.32-.063.856.856,0,0,1-.473-1.114c1.323-3.276.479-4.474-.856-5.809-1.064-1.064-.461-2.435.072-3.645.763-1.735,1.139-2.876-.072-4.088a5.6,5.6,0,0,0-3.4-1.44c-1.8-.305-3.842-.652-4.46-4.11a6.455,6.455,0,0,1,2.6-6.6,4.6,4.6,0,0,1,4.82-.619c1.652.953,6.883,1.021,8.755.965a.875.875,0,0,1,.881.831.856.856,0,0,1-.83.88c-.742.022-7.3.173-9.662-1.194a3.022,3.022,0,0,0-2.98.538,4.779,4.779,0,0,0-1.9,4.9c.4,2.273,1.349,2.433,3.061,2.723a7.254,7.254,0,0,1,4.327,1.918c2.127,2.127,1.105,4.45.428,5.988-.388.883-.646,1.526-.428,1.744,1.9,1.9,2.773,3.847,1.233,7.661A.856.856,0,0,1,263.637,1535.168Z" fill="#0b6f97"></path><path id="Path_251" data-name="Path 251" d="M252.939,1502.4a2.508,2.508,0,0,1-.758-.116,3.56,3.56,0,0,1-2.032-2.108c-1.43-3.065,3.81-7.84,4.874-8.767a.856.856,0,0,1,1.124,1.292c-2.179,1.9-5.1,5.355-4.447,6.752.322.688.656,1.092,1,1.2.555.175,1.483-.358,2.461-.923a9.968,9.968,0,0,0,1.124-.778c1.011-.776,1.965-1.51,4.034-.315,1.535.886,4.374.747,5.338.619a.856.856,0,0,1,.227,1.7c-.166.022-4.064.527-6.421-.834-1.078-.622-1.239-.5-2.135.19a11.593,11.593,0,0,1-1.311.9A6.626,6.626,0,0,1,252.939,1502.4Z" fill="#0b6f97"></path></g></svg> 