<?xml version="1.0" encoding="UTF-8"?> <svg xmlns="http://www.w3.org/2000/svg" width="49.036" height="49.039" viewBox="0 0 49.036 49.039"><g id="Group_50" data-name="Group 50" transform="translate(-219.543 -1089.544)"><path id="Path_223" data-name="Path 223" d="M234.274,1102.452c0-3.164-2.331-5.838-5.091-5.838s-5.091,2.674-5.091,5.838c0,2.837.383,5.185,5.091,5.185S234.274,1105.289,234.274,1102.452Zm-8.753,0c0-2.349,1.711-4.41,3.662-4.41s3.663,2.061,3.663,4.41c0,2.6-.148,3.757-3.663,3.757S225.521,1105.057,225.521,1102.452Z" fill="#0b6f97"></path><path id="Path_224" data-name="Path 224" d="M264.672,1102.452c0-3.164-2.331-5.838-5.091-5.838s-5.091,2.674-5.091,5.838c0,2.837.384,5.185,5.091,5.185S264.672,1105.289,264.672,1102.452Zm-8.753,0c0-2.349,1.711-4.41,3.662-4.41s3.663,2.061,3.663,4.41c0,2.6-.148,3.757-3.663,3.757S255.919,1105.057,255.919,1102.452Z" fill="#0b6f97"></path><path id="Path_225" data-name="Path 225" d="M221.411,1113.678l-1.818,8.828a2.42,2.42,0,0,0,2.918,2.85l-.6,2.979a.714.714,0,0,0,.7.856h1.855v6.674a2.713,2.713,0,0,0,4.722,1.829,2.713,2.713,0,0,0,4.722-1.829v-6.674h1.856a.714.714,0,0,0,.7-.856l-2.1-10.323,3.541,4.94v6.363a2.014,2.014,0,0,0,1.92,2.008v4.785a2.473,2.473,0,0,0,4.236,1.736,2.472,2.472,0,0,0,4.235-1.736v-4.785a2.014,2.014,0,0,0,1.92-2.008v-6.257l3.4-5.425v17.61a3.336,3.336,0,0,0,5.965,2.057,3.336,3.336,0,0,0,5.966-2.057v-9.266a3.617,3.617,0,0,0,3.032-3.563v-8.353a5.591,5.591,0,0,0-5.585-5.585h-6.328a5.6,5.6,0,0,0-4.812,2.749l-4.767,7.813c-.065,0-.128-.02-.2-.02h-5.663c-.073,0-.141.017-.213.021l-5.082-7.664a6.43,6.43,0,0,0-5.362-2.9h-2.778A6.542,6.542,0,0,0,221.411,1113.678Zm7.058,22.187a1.29,1.29,0,0,1-2.58,0v-6.674h2.58Zm4.008,0a1.29,1.29,0,0,1-2.58,0v-6.674h2.58Zm16.31-6.55a.586.586,0,0,1-.584.585h-.621a.714.714,0,0,0-.714.714v5.494a1.047,1.047,0,0,1-2.093,0v-5.044a.714.714,0,0,0-.714-.714h0a.715.715,0,0,0-.715.714v5.044a1.047,1.047,0,0,1-2.093,0v-5.494a.714.714,0,0,0-.714-.714h-.621a.586.586,0,0,1-.585-.585v-6.974a1.9,1.9,0,0,1,1.9-1.895h5.663a1.9,1.9,0,0,1,1.9,1.895Zm4.293-17.357a4.172,4.172,0,0,1,3.586-2.054h6.328a4.162,4.162,0,0,1,4.157,4.157v8.353a2.189,2.189,0,0,1-1.6,2.105v-9.636a.714.714,0,0,0-1.429,0v20.36a1.911,1.911,0,0,1-3.822,0v-10.977a.714.714,0,0,0-1.429,0v10.977a1.911,1.911,0,0,1-3.823,0v-20.105a.784.784,0,0,0-.008-.082c0-.02,0-.04-.008-.059s-.014-.045-.021-.067-.012-.044-.021-.065a.527.527,0,0,0-.034-.061c-.011-.02-.02-.04-.032-.058s-.03-.036-.045-.054a.55.55,0,0,0-.045-.052.611.611,0,0,0-.047-.039c-.021-.017-.041-.035-.063-.05l-.01-.007c-.013-.008-.029-.013-.043-.021a.624.624,0,0,0-.074-.036.515.515,0,0,0-.064-.02c-.023-.007-.045-.014-.069-.019a.758.758,0,0,0-.081-.008c-.016,0-.031,0-.048,0l-.011,0a.583.583,0,0,0-.083.008.554.554,0,0,0-.058.007c-.024.006-.047.015-.07.022a.624.624,0,0,0-.062.021.541.541,0,0,0-.063.034c-.019.011-.039.02-.057.032a.552.552,0,0,0-.054.045c-.017.014-.036.028-.052.044s-.025.031-.038.046-.035.042-.05.065l-.007.009-3.847,6.138a3.335,3.335,0,0,0-1.372-1.454Zm-25.286-2.054h2.778a5.016,5.016,0,0,1,4.177,2.268l4.839,7.3a3.329,3.329,0,0,0-1.364,1.475l-4.633-6.464,0,0-.008-.011c-.008-.011-.018-.02-.026-.03a.876.876,0,0,0-.064-.072c-.013-.013-.029-.023-.043-.035s-.043-.035-.066-.05-.034-.018-.051-.027-.047-.025-.072-.035-.036-.011-.054-.016a.678.678,0,0,0-.078-.021.44.44,0,0,0-.064-.006.413.413,0,0,0-.072-.005.7.7,0,0,0-.09.009c-.015,0-.029,0-.043,0l-.005,0a.608.608,0,0,0-.092.028c-.015.006-.031.009-.045.015a65.95,65.95,0,0,1-.126.071l-.006,0c-.014.01-.025.023-.038.034a.783.783,0,0,0-.062.054c-.016.018-.03.037-.044.056a.517.517,0,0,0-.04.053.5.5,0,0,0-.035.064.535.535,0,0,0-.028.059.489.489,0,0,0-.02.065.568.568,0,0,0-.018.068c0,.023,0,.046-.007.068s-.005.046-.005.07a.783.783,0,0,0,.008.082c0,.017,0,.033.005.05l2.587,12.738H223.479l2.587-12.738a.714.714,0,1,0-1.4-.284l-1.717,8.458a1,1,0,0,1-1.957-.405l1.818-8.828A5.108,5.108,0,0,1,227.794,1109.9Z" fill="#0b6f97"></path><path id="Path_226" data-name="Path 226" d="M240.077,1114.125c0,2.137.305,4.054,3.984,4.054s3.983-1.917,3.983-4.054c0-2.462-1.824-4.542-3.983-4.542S240.077,1111.663,240.077,1114.125Zm6.539,0c0,1.8,0,2.626-2.555,2.626s-2.556-.823-2.556-2.626c0-1.659,1.194-3.114,2.556-3.114S246.616,1112.466,246.616,1114.125Z" fill="#0b6f97"></path><path id="Path_227" data-name="Path 227" d="M251.52,1098.731l.017-.028c1.687-2.928,1.548-5.694-.38-7.591a5.459,5.459,0,0,0-7.1-.481,5.459,5.459,0,0,0-7.1.481c-1.928,1.9-2.067,4.663-.38,7.591l.017.028a19.1,19.1,0,0,0,7.1,6.431.718.718,0,0,0,.714,0A19.079,19.079,0,0,0,251.52,1098.731Zm-7.459,4.985a17.435,17.435,0,0,1-6.246-5.739c-.784-1.367-1.8-3.93.152-5.846a4.007,4.007,0,0,1,5.593-.048.713.713,0,0,0,1,0,4.009,4.009,0,0,1,5.594.048c1.948,1.916.936,4.479.152,5.846A17.439,17.439,0,0,1,244.061,1103.716Z" fill="#0b6f97"></path></g></svg> 