<?xml version="1.0" encoding="UTF-8"?> <svg xmlns="http://www.w3.org/2000/svg" width="58.766" height="39.213" viewBox="0 0 58.766 39.213"><g id="Group_53" data-name="Group 53" transform="translate(-215.336 -1694.864)"><g id="Group_51" data-name="Group 51"><path id="Path_228" data-name="Path 228" d="M244.719,1710.811a.733.733,0,0,1-.216-.034l-17.986-5.687a.717.717,0,0,1,0-1.367l17.986-5.687a.722.722,0,0,1,.432,0l17.986,5.687a.717.717,0,0,1,0,1.367l-17.986,5.687A.723.723,0,0,1,244.719,1710.811Zm-15.61-6.4,15.61,4.936,15.61-4.936-15.61-4.936Z" fill="#0b6f97"></path><path id="Path_229" data-name="Path 229" d="M244.72,1717.672c-5.351,0-10.578-2.758-10.578-4.359v-6.339a.716.716,0,0,1,1.433,0v6.239c.447.656,4.185,3.026,9.145,3.026s8.7-2.37,9.145-3.026v-6.239a.716.716,0,0,1,1.432,0v6.339C255.3,1714.914,250.071,1717.672,244.72,1717.672Z" fill="#0b6f97"></path><path id="Path_230" data-name="Path 230" d="M257.955,1717.147a.717.717,0,0,1-.716-.717v-9.881l-12.6-1.43a.717.717,0,0,1,.161-1.424l13.236,1.5a.716.716,0,0,1,.635.712v10.521A.716.716,0,0,1,257.955,1717.147Z" fill="#0b6f97"></path><path id="Path_231" data-name="Path 231" d="M257.955,1719.293a1.789,1.789,0,1,1,1.789-1.789A1.791,1.791,0,0,1,257.955,1719.293Zm0-2.146a.357.357,0,1,0,.357.357A.357.357,0,0,0,257.955,1717.147Z" fill="#0b6f97"></path><path id="Path_232" data-name="Path 232" d="M259.262,1722.9h-2.614a.718.718,0,0,1-.654-.423c-.461-1.027-.934-3.367.572-4.872a.717.717,0,0,1,1.013,1.014,2.954,2.954,0,0,0-.432,2.848H258.8a2.869,2.869,0,0,0-.474-2.849.717.717,0,1,1,1.014-1.013,4.354,4.354,0,0,1,.533,4.944A.715.715,0,0,1,259.262,1722.9Z" fill="#0b6f97"></path></g><g id="Group_52" data-name="Group 52"><path id="Path_233" data-name="Path 233" d="M268.258,1725.972H221.181a.717.717,0,0,1-.717-.717v-28.512a1.881,1.881,0,0,1,1.879-1.879H267.1a1.881,1.881,0,0,1,1.878,1.879v28.512A.717.717,0,0,1,268.258,1725.972Zm-46.361-1.433h45.645v-27.8a.447.447,0,0,0-.446-.446H222.343a.446.446,0,0,0-.446.446Z" fill="#0b6f97"></path><path id="Path_234" data-name="Path 234" d="M250.3,1730.353a.716.716,0,0,1,0-1.433l21.122-.089-3.419-2.86H221.438l-3.419,2.86,21.122.089a.716.716,0,0,1,0,1.433h0l-23.083-.1a.717.717,0,0,1-.457-1.266l5.122-4.284a.719.719,0,0,1,.46-.167h47.084a.717.717,0,0,1,.46.167l5.122,4.284a.717.717,0,0,1-.457,1.266l-23.082.1Z" fill="#0b6f97"></path><rect id="Rectangle_13" data-name="Rectangle 13" width="1.433" height="2.608" transform="translate(238.42 1728.917)" fill="#0b6f97"></rect><path id="Path_235" data-name="Path 235" d="M271.052,1734.077H218.386a3.234,3.234,0,0,1-3.05-3.385v-1.157a.716.716,0,0,1,1.433,0v1.157a1.811,1.811,0,0,0,1.617,1.952h52.666a1.811,1.811,0,0,0,1.617-1.952v-1.157a.716.716,0,0,1,1.433,0v1.157A3.234,3.234,0,0,1,271.052,1734.077Z" fill="#0b6f97"></path><rect id="Rectangle_14" data-name="Rectangle 14" width="1.433" height="2.608" transform="translate(249.585 1728.917)" fill="#0b6f97"></rect><path id="Path_236" data-name="Path 236" d="M250.3,1731.525H239.137a.716.716,0,1,1,0-1.433H250.3a.716.716,0,0,1,0,1.433Z" fill="#0b6f97"></path></g></g></svg> 