<?xml version="1.0" encoding="UTF-8"?> <svg xmlns="http://www.w3.org/2000/svg" xmlns:xlink="http://www.w3.org/1999/xlink" width="289px" height="125px" viewBox="0 0 289 125"><title>logo</title><desc>Created with Sketch.</desc><defs></defs><g id="Page-1" stroke="none" stroke-width="1" fill="none" fill-rule="evenodd"><g id="logo" fill-rule="nonzero"><g id="Group"><polygon id="Shape" fill="#FFFFFF" points="0 0 0 124.17 288.032 124.17 288.032 0"></polygon><g transform="translate(2.000000, 2.000000)"><rect id="Rectangle-path" fill="#539ED0" x="168.4" y="0.487" width="115.149" height="119.208"></rect><path d="M273.535,59.314 C273.535,85.575 252.228,106.869 225.974,106.869 C199.699,106.869 178.419,85.575 178.419,59.314 C178.419,33.048 199.698,11.754 225.974,11.754 C252.229,11.754 273.535,33.047 273.535,59.314 Z" id="Shape" fill="#FFFFFF"></path><g transform="translate(181.000000, 14.000000)" id="Shape"><g fill="#FFB351"><path d="M20.296,54.6 C20.79,54.371 21.903,53.874 22.401,53.627 C22.971,53.346 22.895,53.092 22.724,52.621 C21.977,50.348 21.6,47.925 21.6,45.412 C21.6,32.52 32.075,22.019 44.979,22.019 C57.852,22.019 68.348,32.519 68.348,45.412 C68.348,48.722 67.649,51.879 66.412,54.735 C66.318,54.935 66.303,55.333 66.641,55.5 C67.014,55.66 68.436,56.295 68.849,56.462 C69.264,56.635 69.53,56.528 69.741,56.09 C71.156,52.813 71.94,49.203 71.94,45.412 C71.94,30.527 59.845,18.423 44.979,18.423 C30.098,18.423 18.012,30.527 18.012,45.412 C18.012,48.469 18.518,51.399 19.463,54.135 C19.6,54.561 19.818,54.816 20.296,54.6 Z"></path><path d="M13.445,57.77 C14.013,57.495 15.935,56.62 16.439,56.368 C16.962,56.136 16.839,55.706 16.765,55.493 C15.627,52.341 15.025,48.966 15.025,45.424 C15.025,28.885 28.456,15.451 44.99,15.451 C61.486,15.451 74.925,28.886 74.925,45.424 C74.925,49.662 74.044,53.683 72.452,57.338 C72.358,57.529 72.225,57.97 72.704,58.165 C73.186,58.364 75.337,59.33 75.741,59.506 C76.167,59.683 76.431,59.611 76.635,59.118 C78.484,54.936 79.48,50.29 79.48,45.424 C79.48,26.378 64.006,10.885 44.99,10.885 C25.937,10.885 10.47,26.378 10.47,45.424 C10.47,49.62 11.224,53.628 12.601,57.365 C12.686,57.59 12.867,58.037 13.445,57.77 Z"></path><path d="M4.127,62.06 C4.793,61.735 8.865,59.858 9.572,59.543 C10.289,59.223 9.976,58.668 9.873,58.377 C8.373,54.325 7.553,49.969 7.553,45.412 C7.553,24.753 24.333,7.962 44.979,7.962 C65.604,7.962 82.389,24.752 82.389,45.412 C82.389,50.639 81.313,55.611 79.376,60.138 C79.25,60.412 79.113,60.971 79.791,61.262 C80.457,61.551 84.398,63.291 84.941,63.512 C85.473,63.776 85.875,63.718 86.24,62.914 C88.525,57.527 89.779,51.611 89.779,45.412 C89.779,20.686 69.679,0.546 44.978,0.546 C20.256,0.546 0.158,20.685 0.158,45.412 C0.158,51.098 1.231,56.539 3.158,61.541 C3.274,61.818 3.463,62.368 4.127,62.06 Z"></path></g><g transform="translate(29.000000, 26.000000)" fill="#FF443B"><path d="M15.994,9.675 C18.634,9.675 20.799,7.53 20.799,4.879 C20.799,2.205 18.634,0.06 15.994,0.06 C13.326,0.06 11.201,2.205 11.201,4.879 C11.201,7.53 13.326,9.675 15.994,9.675 Z"></path><path d="M17.754,34.839 C18.688,34.839 19.449,34.074 19.449,33.138 L19.449,22.604 C19.488,21.276 20.435,19.557 21.364,18.557 L31.284,8.646 C31.959,7.969 31.959,6.879 31.284,6.229 L29.478,4.421 C28.813,3.747 27.728,3.747 27.071,4.421 L18.115,13.398 C17.516,13.97 17.109,14.337 15.994,14.337 C14.883,14.337 14.461,13.97 13.883,13.398 L4.91,4.421 C4.237,3.747 3.172,3.747 2.504,4.421 L0.702,6.229 C0.037,6.88 0.037,7.97 0.702,8.646 L10.621,18.557 C11.559,19.557 12.492,21.276 12.533,22.604 L12.533,33.138 C12.533,34.075 13.293,34.839 14.232,34.839 L17.754,34.839 Z"></path></g><path d="M78.045,64.561 C76.357,65.178 73.231,68.272 71.799,69.53 L71.422,69.602 C71.92,69.038 74.081,66.299 74.649,65.36 C76.358,62.53 73.134,59.852 69.581,61.894 C68.243,62.659 65.999,65.032 64.907,65.875 L64.555,65.956 C65.041,65.486 67.04,62.849 67.594,62.012 C69.135,59.707 65.881,57.539 63.082,59.223 C61.103,60.414 59.477,62.045 57.813,63.333 L57.529,63.405 C57.988,62.967 59.088,61.659 59.515,61.193 C61.169,59.347 58.798,57.205 56.304,58.494 C53.919,59.723 50.454,63.155 46.694,65.574 C48.446,66.523 51.527,66.656 56.406,68.742 C61.295,70.833 62.86,75.698 59.685,79.541 C56.728,83.096 52.242,81.889 48.371,80.693 C43.883,79.297 42.303,77.832 36.892,75.957 C33.361,74.729 31.921,74.759 31.986,73.732 C32.052,72.581 35.09,73.274 37.945,74.309 C45.865,77.173 56.388,83.704 58.966,76.673 C61.003,71.128 51.879,68.732 48.395,68.063 C43.522,67.133 40.172,63.565 35.949,61.291 C29.591,57.854 24.689,57.77 21.054,58.43 C17.146,59.133 11.566,62.33 8.187,64.35 C5.848,65.732 6.013,67.842 8.309,71.119 C16.423,82.657 29.818,90.196 44.976,90.196 C61.063,90.196 75.167,81.669 83.068,68.946 C84.812,66.136 82.059,63.128 78.045,64.561 Z" fill="#005191"></path></g><rect id="Rectangle-path" fill="#005191" x="0.483" y="0.487" width="167.917" height="119.208"></rect><g transform="translate(8.000000, 13.000000)" fill="#FFFFFF" id="Shape"><path d="M122.56,96.422 C122.567,97.707 127.166,99.106 129.574,99.106 C131.989,99.106 135.352,98.202 137.092,93.932 C138.924,89.428 146.502,63.467 146.502,63.467 L147.352,63.461 C149.057,63.155 149.668,62.131 149.668,59.528 C149.668,58.604 149.551,58.52 148.786,58.52 L142.572,58.52 C141.966,58.54 141.911,58.631 141.721,59.223 L136.543,79.249 C136.543,79.249 131.218,59.223 131.218,59.226 C131.048,58.631 130.969,58.539 130.372,58.52 L124.123,58.52 C123.368,58.52 123.231,58.604 123.231,59.528 C123.231,62.141 123.862,63.174 125.582,63.461 L126.451,63.467 C126.451,63.467 131.425,80.886 134.054,88.192 C134.054,88.192 133.662,89.6 133.662,89.612 C132.822,92.327 131.369,93.596 129.082,93.596 C128.541,93.596 125.476,93.129 125.476,93.129 C123.743,92.986 123.284,93.713 123.073,94.355 C122.774,95.248 122.56,96.231 122.56,96.422 Z"></path><path d="M101.355,48.795 L93.935,48.795 C93.283,48.795 93.265,48.85 93.157,49.507 L88.983,75.445 L83.931,49.632 C83.817,48.942 83.704,48.795 82.906,48.795 L79.511,48.795 C78.259,48.795 78.213,48.982 78.056,49.676 L72.788,75.446 L68.835,49.508 C68.746,48.851 68.714,48.796 68.069,48.796 L60.454,48.796 C59.661,48.796 59.532,48.87 59.532,49.835 C59.532,52.689 60.214,53.733 62.247,53.962 L63.012,53.997 L68.82,85.907 C69.008,86.643 69.103,86.798 69.795,86.798 L74.822,86.798 C75.622,86.798 75.648,86.749 75.789,85.907 L80.789,61.098 L85.019,85.918 C85.159,86.748 85.176,86.797 85.993,86.797 L91.125,86.797 C91.803,86.797 91.908,86.643 92.093,85.906 L98.669,53.976 L99.404,53.96 C101.435,53.731 102.106,52.675 102.106,49.833 C102.106,48.93 101.98,48.834 101.355,48.795 Z"></path><path d="M120.69,81.795 C120.396,80.695 120.105,79.301 120.105,76.733 L120.105,66.69 C120.105,60.368 117.36,57.552 111.119,57.552 C106.779,57.552 102.184,59.43 102.184,60.611 C102.184,60.767 102.375,61.674 102.658,62.509 C102.784,62.894 103.076,63.76 104.923,63.615 C105.677,63.556 108.863,62.946 110.205,62.946 C113.737,62.946 114.085,65.006 114.085,67.44 L114.085,69.434 C109.673,69.434 100.178,69.476 100.178,79.043 C100.178,84.433 103.162,87.771 107.984,87.771 C111.639,87.771 113.457,85.77 114.55,84.561 L114.965,84.095 L115.102,84.82 C115.325,85.987 115.543,86.797 116.454,86.797 L122.847,86.797 C123.659,86.797 123.75,86.737 123.75,85.8 C123.75,82.947 123.057,81.936 120.69,81.795 Z M114.085,80.461 C113.389,81.225 111.924,82.785 109.897,82.785 C107.794,82.785 106.2,80.996 106.2,78.642 C106.2,73.423 112.393,73.72 114.086,73.839 L114.086,80.461 L114.085,80.461 Z"></path><path d="M75.718,34.756 L75.045,34.748 L75.045,12.125 C75.045,11.57 75.011,11.51 74.492,11.51 L65.541,11.51 C64.768,11.51 64.661,11.57 64.661,12.493 C64.661,15.578 65.48,16.517 68.125,16.517 L68.773,16.517 L68.773,34.748 L68.092,34.756 C65.443,34.756 64.634,35.709 64.634,38.788 C64.634,39.706 64.756,39.781 65.525,39.781 L78.31,39.781 C79.055,39.781 79.199,39.706 79.199,38.788 C79.199,35.745 78.331,34.756 75.718,34.756 Z"></path><path d="M71.84,0.774 C69.705,0.774 68.037,2.557 68.037,4.83 C68.037,7.078 69.738,8.918 71.84,8.918 C73.908,8.918 75.584,7.078 75.584,4.83 C75.584,2.592 73.908,0.774 71.84,0.774 Z"></path><path d="M29.51,7.939 L29.685,7.939 C32.385,7.939 33.254,6.93 33.254,3.782 C33.254,2.843 33.135,2.762 32.338,2.762 L20.028,2.762 C19.321,2.762 19.215,2.874 19.152,3.302 L19.118,3.782 C19.118,6.918 19.976,7.921 22.637,7.939 L22.819,7.939 L22.819,26.508 C22.819,30.053 22.819,34.893 17.114,34.893 C11.839,34.893 11.417,31.09 11.417,26.508 L11.417,7.939 L11.592,7.939 C14.248,7.921 15.109,6.917 15.109,3.782 C15.109,3.782 15.07,3.201 15.07,3.194 C15.004,2.863 14.879,2.762 14.198,2.762 L1.898,2.762 C1.109,2.762 0.982,2.843 0.982,3.782 C0.982,6.966 1.804,7.939 4.562,7.939 L4.724,7.939 L4.724,26.508 C4.724,36.499 8.437,40.77 17.115,40.77 C25.794,40.77 29.512,36.499 29.512,26.508 L29.512,7.939 L29.51,7.939 Z"></path><path d="M58.06,34.756 L58.06,19.493 C58.06,13.295 56.018,10.508 51.459,10.508 C47.393,10.508 45.136,12.891 43.383,14.689 C43.254,14.044 43.109,13.519 43.109,13.519 C42.83,12.274 42.609,11.51 41.806,11.51 L34.884,11.51 C34.114,11.51 34.013,11.57 34.013,12.493 C34.013,15.414 34.732,16.457 37.2,16.507 C37.549,17.731 37.763,18.736 37.763,21.647 L37.763,34.756 C35.163,34.771 34.359,35.726 34.359,38.788 C34.359,39.706 34.489,39.781 35.255,39.781 L43.484,39.781 C43.989,39.781 44.015,39.702 44.015,39.164 L44.021,18.69 C44.769,17.915 46.48,16.213 48.685,16.213 C51.802,16.213 51.802,19.768 51.802,21.293 L51.802,39.164 C51.802,39.703 51.816,39.781 52.338,39.781 L60.554,39.781 C61.297,39.781 61.433,39.706 61.433,38.788 C61.434,35.78 60.594,34.784 58.06,34.756 Z"></path><path d="M91.102,40.77 C94.759,40.77 97.717,39.809 97.717,39.036 C97.717,38.898 97.506,37.822 97.37,37.288 C96.867,35.163 96.676,34.374 92.795,34.858 C92.295,34.922 91.878,34.807 91.568,34.504 C90.806,33.749 90.806,32.078 90.806,30.741 L90.806,16.517 L94.286,16.517 C96.955,16.517 97.763,15.578 97.763,12.493 C97.763,11.57 97.644,11.51 96.87,11.51 L90.806,11.51 L90.806,3.554 C90.806,2.8 90.742,2.765 90.455,2.762 C90.182,2.762 88.905,2.929 88.259,3.019 C86.469,3.322 84.544,4.706 84.544,7.904 L84.544,11.51 L80.97,11.51 C80.2,11.51 80.091,11.57 80.091,12.493 C80.091,15.578 80.9,16.517 83.545,16.517 L84.544,16.517 L84.544,29.756 C84.545,35.168 84.545,40.77 91.102,40.77 Z"></path><path d="M121.507,26.152 C121.507,15.786 118.055,10.508 111.259,10.508 C104.531,10.508 100.019,16.709 100.019,25.931 C100.019,38.182 106.278,40.77 111.524,40.77 C115.759,40.77 120.681,38.795 120.681,37.538 C120.681,37.333 120.463,36.393 120.182,35.531 C119.982,34.906 119.623,34.265 117.836,34.355 C116.466,34.425 114.244,35.066 112.205,35.066 C108.295,35.066 106.297,32.616 106.282,27.405 L120.496,27.405 C121.328,27.404 121.507,27.197 121.507,26.152 Z M106.497,22.419 L106.541,21.919 C106.714,20.006 107.113,15.514 111.119,15.514 C115.027,15.514 115.052,20.092 115.052,22.419 L106.497,22.419 Z"></path><path d="M146.775,34.756 C146.431,33.652 146.214,32.494 146.214,29.701 L146.214,1.526 C146.214,0.982 146.169,0.908 145.655,0.908 L137.401,0.908 C136.632,0.908 136.499,0.982 136.499,1.896 C136.499,4.877 137.295,5.859 139.77,5.914 L139.932,5.916 L139.932,12.413 L139.424,12.065 C138.481,11.415 137.204,10.507 134.445,10.507 C128.012,10.507 124.599,16.153 124.599,26.8 C124.599,35.805 127.706,40.769 133.361,40.769 C137.828,40.769 140.783,37.496 140.783,37.496 L141.138,38.716 C141.409,39.671 141.439,39.781 142.218,39.781 L149.468,39.781 C150.228,39.781 150.361,39.706 150.361,38.788 C150.363,35.753 149.562,34.756 146.775,34.756 Z M135.443,35.359 C131.632,35.359 130.875,31.872 130.875,25.809 C130.875,19.393 131.668,15.927 135.761,15.927 C137.392,15.927 138.586,16.28 139.934,17.153 L139.934,33.214 C139.125,34.153 137.973,35.359 135.443,35.359 Z"></path></g></g></g></g></g></svg> 